<svg xmlns="http://www.w3.org/2000/svg" width="1000" height="438" viewBox="0 0 1000 438" fill="none" role="img" aria-label="Services">
<title>Services</title>
<style>
  .sans{font-family:'Geist','Inter','Segoe UI Variable Text','Segoe UI',-apple-system,BlinkMacSystemFont,'Helvetica Neue',Arial,sans-serif} .mono{font-family:'Geist Mono','JetBrains Mono','SF Mono','Cascadia Mono',Consolas,Menlo,monospace;font-variant-numeric:tabular-nums}
  .live{animation:live 2.4s ease-in-out infinite} @keyframes live{50%{opacity:.25}}
  .sweep{animation:sweep 6s cubic-bezier(.45,0,.2,1) infinite} @keyframes sweep{0%{transform:translateX(0);opacity:0}8%{opacity:1}92%{opacity:1}100%{transform:translateX(var(--d));opacity:0}}
  @media (prefers-reduced-motion:reduce){*{animation:none!important}}</style>
<rect x=".5" y=".5" width="999" height="437" rx="12" fill="#FFFFFF" stroke="#E5E5E5"/>
<text x="24" y="31" class="mono" font-size="13" font-weight="400" fill="#A3A3A3" text-anchor="start">tanashic0dex / </text>
    <text x="141" y="31" class="mono" font-size="13" font-weight="600" fill="#0A0A0A" text-anchor="start">services</text>
    <text x="976" y="31" class="mono" font-size="11.5" font-weight="400" fill="#A3A3A3" text-anchor="end">availability: now</text>
    <rect x="1" y="50" width="998" height="1" fill="#E5E5E5"/>
<rect x="24.5" y="74.5" width="308.3" height="339" rx="12" fill="#FAFAFA" stroke="#E5E5E5"/>
      <text x="48" y="108" class="mono" font-size="10.5" font-weight="500" fill="#525252" text-anchor="start" letter-spacing="0.9">OPEN SOURCE</text>
      
      <text x="48" y="154" class="sans" font-size="28" font-weight="700" fill="#0A0A0A" text-anchor="start" letter-spacing="-0.8">Free</text>
      <text x="48" y="180" class="sans" font-size="13.5" font-weight="400" fill="#525252" text-anchor="start">Explore, fork and learn from my code.</text>
      <rect x="48" y="200" width="261.3" height="1" fill="#E5E5E5" opacity="1"/>
      <path d="M48 222 l3.5 3.5 7-7.5" stroke="#0A0A0A" stroke-width="1.6" stroke-linecap="round" stroke-linejoin="round"/><text x="68" y="226" class="sans" font-size="13.5" font-weight="400" fill="#0A0A0A" text-anchor="start">Public repositories</text><path d="M48 252 l3.5 3.5 7-7.5" stroke="#0A0A0A" stroke-width="1.6" stroke-linecap="round" stroke-linejoin="round"/><text x="68" y="256" class="sans" font-size="13.5" font-weight="400" fill="#0A0A0A" text-anchor="start">Issues and PRs welcome</text><path d="M48 282 l3.5 3.5 7-7.5" stroke="#0A0A0A" stroke-width="1.6" stroke-linecap="round" stroke-linejoin="round"/><text x="68" y="286" class="sans" font-size="13.5" font-weight="400" fill="#0A0A0A" text-anchor="start">Clean, documented code</text>
      <rect x="48.5" y="352.5" width="260.3" height="39" rx="8" fill="#FFFFFF" stroke="#E5E5E5"/>
      <text x="178.7" y="376.5" class="sans" font-size="13.5" font-weight="600" fill="#0A0A0A" text-anchor="middle">Browse repos →</text><rect x="345.8" y="74.5" width="308.3" height="339" rx="12" fill="#0A0A0A" stroke="#0A0A0A"/>
      <text x="369.3" y="108" class="mono" font-size="10.5" font-weight="500" fill="#A3A3A3" text-anchor="start" letter-spacing="0.9">FREELANCE</text>
      <rect x="553.2" y="94.5" width="77" height="19" rx="9.5" stroke="#FFFFFF" stroke-opacity=".45"/><text x="591.7" y="108" class="mono" font-size="10" font-weight="600" fill="#FFFFFF" text-anchor="middle" letter-spacing="0.8">POPULAR</text>
      <text x="369.3" y="154" class="sans" font-size="28" font-weight="700" fill="#FFFFFF" text-anchor="start" letter-spacing="-0.8">Per project</text>
      <text x="369.3" y="180" class="sans" font-size="13.5" font-weight="400" fill="#A3A3A3" text-anchor="start">Your idea, shipped end-to-end.</text>
      <rect x="369.3" y="200" width="261.3" height="1" fill="#FFFFFF" opacity="0.2"/>
      <path d="M369.3 222 l3.5 3.5 7-7.5" stroke="#FFFFFF" stroke-width="1.6" stroke-linecap="round" stroke-linejoin="round"/><text x="389.3" y="226" class="sans" font-size="13.5" font-weight="400" fill="#FFFFFF" text-anchor="start">Landing pages &amp; web apps</text><path d="M369.3 252 l3.5 3.5 7-7.5" stroke="#FFFFFF" stroke-width="1.6" stroke-linecap="round" stroke-linejoin="round"/><text x="389.3" y="256" class="sans" font-size="13.5" font-weight="400" fill="#FFFFFF" text-anchor="start">React + TypeScript frontends</text><path d="M369.3 282 l3.5 3.5 7-7.5" stroke="#FFFFFF" stroke-width="1.6" stroke-linecap="round" stroke-linejoin="round"/><text x="389.3" y="286" class="sans" font-size="13.5" font-weight="400" fill="#FFFFFF" text-anchor="start">REST APIs with Node.js</text><path d="M369.3 312 l3.5 3.5 7-7.5" stroke="#FFFFFF" stroke-width="1.6" stroke-linecap="round" stroke-linejoin="round"/><text x="389.3" y="316" class="sans" font-size="13.5" font-weight="400" fill="#FFFFFF" text-anchor="start">Deploy &amp; handoff</text>
      <rect x="369.8" y="352.5" width="260.3" height="39" rx="8" fill="#FFFFFF" stroke="#FFFFFF"/>
      <text x="500" y="376.5" class="sans" font-size="13.5" font-weight="600" fill="#0A0A0A" text-anchor="middle">Start a project →</text><rect x="667.2" y="74.5" width="308.3" height="339" rx="12" fill="#FAFAFA" stroke="#E5E5E5"/>
      <text x="690.7" y="108" class="mono" font-size="10.5" font-weight="500" fill="#525252" text-anchor="start" letter-spacing="0.9">FULL-TIME</text>
      
      <text x="690.7" y="154" class="sans" font-size="28" font-weight="700" fill="#0A0A0A" text-anchor="start" letter-spacing="-0.8">Hire me</text>
      <text x="690.7" y="180" class="sans" font-size="13.5" font-weight="400" fill="#525252" text-anchor="start">A developer who shows up and ships.</text>
      <rect x="690.7" y="200" width="261.3" height="1" fill="#E5E5E5" opacity="1"/>
      <path d="M690.7 222 l3.5 3.5 7-7.5" stroke="#0A0A0A" stroke-width="1.6" stroke-linecap="round" stroke-linejoin="round"/><text x="710.7" y="226" class="sans" font-size="13.5" font-weight="400" fill="#0A0A0A" text-anchor="start">Junior full-stack role</text><path d="M690.7 252 l3.5 3.5 7-7.5" stroke="#0A0A0A" stroke-width="1.6" stroke-linecap="round" stroke-linejoin="round"/><text x="710.7" y="256" class="sans" font-size="13.5" font-weight="400" fill="#0A0A0A" text-anchor="start">Remote or hybrid</text><path d="M690.7 282 l3.5 3.5 7-7.5" stroke="#0A0A0A" stroke-width="1.6" stroke-linecap="round" stroke-linejoin="round"/><text x="710.7" y="286" class="sans" font-size="13.5" font-weight="400" fill="#0A0A0A" text-anchor="start">Available right now</text>
      <rect x="691.2" y="352.5" width="260.3" height="39" rx="8" fill="#FFFFFF" stroke="#E5E5E5"/>
      <text x="821.3" y="376.5" class="sans" font-size="13.5" font-weight="600" fill="#0A0A0A" text-anchor="middle">Book a call →</text>
</svg>