<svg xmlns="http://www.w3.org/2000/svg" width="460" height="200" viewBox="0 0 460 200" role="img" aria-label="Manga Store">
<style>
text{font-family:-apple-system,BlinkMacSystemFont,'Segoe UI','Noto Sans',Helvetica,Arial,sans-serif;fill:#f0f6fc}
.m{font-family:ui-monospace,SFMono-Regular,'SF Mono',Menlo,Consolas,'Liberation Mono',monospace;font-size:11.5px;fill:#9198a1}
.pulse{animation:p 2.4s ease-in-out infinite}@keyframes p{50%{opacity:.25}}
@media (prefers-reduced-motion:reduce){.pulse{animation:none}}
</style>
<rect x=".5" y=".5" width="459" height="199" rx="12" fill="#0d1117" stroke="#3d444d"/>
<text x="24" y="35" class="m">02</text>
<circle cx="378" cy="31" r="3.5" fill="#3fb950" class="pulse"/><text x="436" y="35" class="m" text-anchor="end" style="fill:#3fb950">live ↗</text>
<text x="24" y="76" font-size="22" font-weight="600" letter-spacing="-.4">Manga Store</text>
<text x="24" y="104" font-size="14" fill="#9198a1" style="fill:#9198a1">P2P marketplace for game accounts, items and gold —</text>
<text x="24" y="124" font-size="14" style="fill:#9198a1">stores, order chat, reviews, PIX and push alerts.</text>
<rect x="24.5" y="152.5" width="64" height="21" rx="10.5" fill="#151b23" stroke="#3d444d"/><text x="56.5" y="166.5" class="m" text-anchor="middle">Next.js</text><rect x="95.5" y="152.5" width="85" height="21" rx="10.5" fill="#151b23" stroke="#3d444d"/><text x="138" y="166.5" class="m" text-anchor="middle">TypeScript</text><rect x="187.5" y="152.5" width="64" height="21" rx="10.5" fill="#151b23" stroke="#3d444d"/><text x="219.5" y="166.5" class="m" text-anchor="middle">Drizzle</text><rect x="258.5" y="152.5" width="43" height="21" rx="10.5" fill="#151b23" stroke="#3d444d"/><text x="280" y="166.5" class="m" text-anchor="middle">Neon</text><rect x="308.5" y="152.5" width="92" height="21" rx="10.5" fill="#151b23" stroke="#3d444d"/><text x="354.5" y="166.5" class="m" text-anchor="middle">Better Auth</text><rect x="407.5" y="152.5" width="43" height="21" rx="10.5" fill="#151b23" stroke="#3d444d"/><text x="429" y="166.5" class="m" text-anchor="middle">GSAP</text>
</svg>